<svg xmlns="http://www.w3.org/2000/svg" width="21" height="20" fill="none"><path fill="#3E9CDC" d="M16.75 14.85a.275.275 0 0 1-.267.267H4.16a.275.275 0 0 1-.268-.268V8.421q.264.3.578.552a113 113 0 0 1 3.566 2.83c.627.527 1.406 1.171 2.276 1.171h.017c.87 0 1.65-.644 2.277-1.172a115 115 0 0 1 3.566-2.829q.314-.251.577-.552zm0-8.798c0 .711-.686 1.64-1.23 2.067a518 518 0 0 0-3.357 2.654c-.443.36-1.247 1.13-1.833 1.13h-.017c-.586 0-1.39-.77-1.833-1.13a518 518 0 0 0-3.356-2.654c-.754-.594-1.23-1.423-1.23-2.377 0-.142.125-.268.267-.268h12.322c.318 0 .267.368.267.578m1.072-.31c0-.737-.603-1.34-1.34-1.34H4.163c-.738 0-1.34.603-1.34 1.34v9.107c0 .737.602 1.34 1.34 1.34h12.32c.737 0 1.34-.603 1.34-1.34z"/></svg>